<svg width="0" height="0" class="hidden">
  <symbol fill="none" xmlns="http://www.w3.org/2000/svg" viewBox="0 0 18 14" id="two">
    <path d="M9.48214 5.64286V4.58928C9.48214 4.33928 9.39286 4.125 9.21429 3.94643C9.03571 3.76786 8.82143 3.67857 8.57143 3.67857C8.32143 3.67857 8.10714 3.76786 7.92857 3.94643C7.75 4.125 7.66071 4.33928 7.66071 4.58928V10.0536C7.66071 11.0952 7.28571 11.9851 6.53571 12.7232C5.78571 13.4613 4.88393 13.8304 3.83036 13.8304C2.77083 13.8304 1.86607 13.4583 1.11607 12.7143C0.372024 11.9643 0 11.0595 0 10V7.625H2.92857V9.96429C2.92857 10.2202 3.01786 10.4375 3.19643 10.6161C3.375 10.7887 3.58929 10.875 3.83929 10.875C4.08929 10.875 4.30357 10.7887 4.48214 10.6161C4.66071 10.4375 4.75 10.2202 4.75 9.96429V4.42857C4.75 3.41071 5.125 2.54167 5.875 1.82143C6.63095 1.10119 7.52976 0.741071 8.57143 0.741071C9.61905 0.741071 10.5179 1.10417 11.2679 1.83036C12.0179 2.55655 12.3929 3.43155 12.3929 4.45536V5.66964L10.6518 6.1875L9.48214 5.64286ZM14.2143 7.625H17.1429V10C17.1429 11.0595 16.7679 11.9643 16.0179 12.7143C15.2738 13.4583 14.372 13.8304 13.3125 13.8304C12.2589 13.8304 11.3571 13.4613 10.6071 12.7232C9.85714 11.9792 9.48214 11.0833 9.48214 10.0357V7.64286L10.6518 8.1875L12.3929 7.66964V10.0804C12.3929 10.3304 12.4821 10.5446 12.6607 10.7232C12.8393 10.8958 13.0536 10.9821 13.3036 10.9821C13.5536 10.9821 13.7679 10.8958 13.9464 10.7232C14.125 10.5446 14.2143 10.3304 14.2143 10.0804V7.625Z" fill="white"></path>
  </symbol>
  <symbol fill="none" xmlns="http://www.w3.org/2000/svg" viewBox="0 0 11 17" id="one">
    <path d="M10.1161 9.59821C10.3006 9.77679 10.3423 9.98214 10.2411 10.2143C10.1399 10.4524 9.96429 10.5714 9.71429 10.5714H6.30357L8.09822 14.8214C8.15774 14.9702 8.15774 15.1161 8.09822 15.2589C8.03869 15.4018 7.9375 15.506 7.79464 15.5714L6.21429 16.2411C6.06548 16.3006 5.91964 16.3006 5.77679 16.2411C5.63393 16.1815 5.52976 16.0804 5.46429 15.9375L3.75893 11.9018L0.973214 14.6875C0.860119 14.8006 0.726191 14.8571 0.571429 14.8571C0.5 14.8571 0.428571 14.8423 0.357143 14.8125C0.119048 14.7113 0 14.5357 0 14.2857V0.857142C0 0.607142 0.119048 0.431547 0.357143 0.330357C0.428571 0.300594 0.5 0.285713 0.571429 0.285713C0.732143 0.285713 0.866071 0.342261 0.973214 0.455357L10.1161 9.59821Z" fill="white"></path>
  </symbol>
  <symbol fill="none" xmlns="http://www.w3.org/2000/svg" viewBox="0 0 14 17" id="four">
    <path d="M12.5714 1.42857C12.5714 2.98214 12.253 4.35714 11.6161 5.55357C10.9851 6.74405 10.1935 7.65476 9.24107 8.28571C10.1935 8.91667 10.9851 9.83036 11.6161 11.0268C12.253 12.2173 12.5714 13.5893 12.5714 15.1429H13.4286C13.5119 15.1429 13.5804 15.1696 13.6339 15.2232C13.6875 15.2768 13.7143 15.3452 13.7143 15.4286V16C13.7143 16.0833 13.6875 16.1518 13.6339 16.2054C13.5804 16.2589 13.5119 16.2857 13.4286 16.2857H0.285714C0.202381 16.2857 0.133929 16.2589 0.0803571 16.2054C0.0267857 16.1518 0 16.0833 0 16V15.4286C0 15.3452 0.0267857 15.2768 0.0803571 15.2232C0.133929 15.1696 0.202381 15.1429 0.285714 15.1429H1.14286C1.14286 13.5893 1.45833 12.2173 2.08929 11.0268C2.72619 9.83036 3.52083 8.91667 4.47321 8.28571C3.52083 7.65476 2.72619 6.74405 2.08929 5.55357C1.45833 4.35714 1.14286 2.98214 1.14286 1.42857H0.285714C0.202381 1.42857 0.133929 1.40179 0.0803571 1.34821C0.0267857 1.29464 0 1.22619 0 1.14286V0.571428C0 0.488095 0.0267857 0.419642 0.0803571 0.366071C0.133929 0.312499 0.202381 0.285713 0.285714 0.285713H13.4286C13.5119 0.285713 13.5804 0.312499 13.6339 0.366071C13.6875 0.419642 13.7143 0.488095 13.7143 0.571428V1.14286C13.7143 1.22619 13.6875 1.29464 13.6339 1.34821C13.5804 1.40179 13.5119 1.42857 13.4286 1.42857H12.5714ZM11.4286 1.42857H2.28571C2.28571 2.65476 2.53869 3.79762 3.04464 4.85714H10.6696C11.1756 3.79762 11.4286 2.65476 11.4286 1.42857ZM10.9196 12.2857C10.5982 11.4464 10.1637 10.7292 9.61607 10.1339C9.07441 9.53274 8.49702 9.10714 7.88393 8.85714H5.83036C5.21726 9.10714 4.63691 9.53274 4.08929 10.1339C3.54762 10.7292 3.11607 11.4464 2.79464 12.2857H10.9196Z" fill="white"></path>
  </symbol>
  <symbol fill="none" xmlns="http://www.w3.org/2000/svg" viewBox="0 0 16 15" id="three">
    <path d="M8.39286 13.9821C8.28571 14.0893 8.15476 14.1429 8 14.1429C7.84524 14.1429 7.71429 14.0893 7.60714 13.9821L2.03571 8.60714C1.97619 8.55952 1.89286 8.48214 1.78571 8.375C1.68452 8.26786 1.52083 8.0744 1.29464 7.79464C1.06845 7.50893 0.866071 7.21726 0.6875 6.91964C0.508929 6.62202 0.348214 6.2619 0.205357 5.83929C0.0684524 5.41667 0 5.00595 0 4.60714C0 3.29762 0.377976 2.27381 1.13393 1.53571C1.88988 0.797619 2.93452 0.428571 4.26786 0.428571C4.63691 0.428571 5.01191 0.494047 5.39286 0.624999C5.77976 0.749999 6.13691 0.922618 6.46429 1.14286C6.79762 1.35714 7.08333 1.55952 7.32143 1.75C7.55952 1.94048 7.78571 2.14286 8 2.35714C8.21429 2.14286 8.44048 1.94048 8.67857 1.75C8.91667 1.55952 9.19941 1.35714 9.52679 1.14286C9.86012 0.922618 10.2173 0.749999 10.5982 0.624999C10.9851 0.494047 11.3631 0.428571 11.7321 0.428571C13.0655 0.428571 14.1101 0.797619 14.8661 1.53571C15.622 2.27381 16 3.29762 16 4.60714C16 5.92262 15.3185 7.2619 13.9554 8.625L8.39286 13.9821Z" fill="white"></path>
  </symbol>
  <symbol fill="none" xmlns="http://www.w3.org/2000/svg" viewBox="0 0 18 13" id="Path">
    <path d="M16.8767 0.739312C16.5423 0.420229 16.0001 0.420229 15.6656 0.739312L9.34943 6.76524C7.142 8.87123 3.66939 8.87124 1.46195 6.76526C1.12752 6.44618 0.58533 6.44621 0.250842 6.76526C-0.0836139 7.08431 -0.0836139 7.60159 0.250842 7.92067L4.80014 12.2608C5.13447 12.5798 5.67706 12.5796 6.01125 12.2608L16.8767 1.89475C17.2112 1.5757 17.2112 1.05839 16.8767 0.739312Z" fill="white"></path>
  </symbol>
</svg>